<mxfile host="app.diagrams.net" modified="2022-09-16T21:39:45.474Z" agent="5.0 (Macintosh; Intel Mac OS X 10_15_7) AppleWebKit/605.1.15 (KHTML, like Gecko) Version/15.6.1 Safari/605.1.15" etag="PWN5rMcvrsJ3vCd3DB3O" version="20.3.2" type="github">
  <diagram id="qLzMe18_uVdomcu7LG07" name="Page-1">
    <mxGraphModel dx="1680" dy="615" grid="1" gridSize="10" guides="1" tooltips="1" connect="1" arrows="1" fold="1" page="1" pageScale="1" pageWidth="850" pageHeight="1100" math="0" shadow="0">
      <root>
        <mxCell id="0" />
        <mxCell id="1" parent="0" />
        <mxCell id="M-cZQk0PQd9_l-VD5DMk-1" value="Etape" style="swimlane;fontStyle=0;childLayout=stackLayout;horizontal=1;startSize=30;horizontalStack=0;resizeParent=1;resizeParentMax=0;resizeLast=0;collapsible=1;marginBottom=0;" parent="1" vertex="1">
          <mxGeometry x="690" y="60.389999999999986" width="220" height="130" as="geometry" />
        </mxCell>
        <mxCell id="M-cZQk0PQd9_l-VD5DMk-13" value="descriptionEtape" style="text;strokeColor=none;fillColor=none;align=left;verticalAlign=middle;spacingLeft=4;spacingRight=4;overflow=hidden;points=[[0,0.5],[1,0.5]];portConstraint=eastwest;rotatable=0;" parent="M-cZQk0PQd9_l-VD5DMk-1" vertex="1">
          <mxGeometry y="30" width="220" height="50" as="geometry" />
        </mxCell>
        <mxCell id="M-cZQk0PQd9_l-VD5DMk-5" value="dureeEtape" style="text;strokeColor=none;fillColor=none;align=left;verticalAlign=middle;spacingLeft=4;spacingRight=4;overflow=hidden;points=[[0,0.5],[1,0.5]];portConstraint=eastwest;rotatable=0;" parent="M-cZQk0PQd9_l-VD5DMk-1" vertex="1">
          <mxGeometry y="80" width="220" height="50" as="geometry" />
        </mxCell>
        <mxCell id="M-cZQk0PQd9_l-VD5DMk-9" value="" style="endArrow=none;html=1;rounded=0;" parent="M-cZQk0PQd9_l-VD5DMk-1" edge="1">
          <mxGeometry width="50" height="50" relative="1" as="geometry">
            <mxPoint y="30" as="sourcePoint" />
            <mxPoint x="30" as="targetPoint" />
          </mxGeometry>
        </mxCell>
        <mxCell id="M-cZQk0PQd9_l-VD5DMk-10" value="" style="endArrow=none;html=1;rounded=0;exitX=0.866;exitY=-0.003;exitDx=0;exitDy=0;entryX=1.002;entryY=-0.072;entryDx=0;entryDy=0;entryPerimeter=0;exitPerimeter=0;" parent="M-cZQk0PQd9_l-VD5DMk-1" source="M-cZQk0PQd9_l-VD5DMk-1" edge="1">
          <mxGeometry width="50" height="50" relative="1" as="geometry">
            <mxPoint x="9.999999999999886" y="40" as="sourcePoint" />
            <mxPoint x="220.44000000000005" y="27.839999999999918" as="targetPoint" />
          </mxGeometry>
        </mxCell>
        <mxCell id="M-cZQk0PQd9_l-VD5DMk-12" value="" style="endArrow=none;html=1;rounded=0;exitX=1;exitY=0.5;exitDx=0;exitDy=0;entryX=0.877;entryY=1.011;entryDx=0;entryDy=0;entryPerimeter=0;" parent="M-cZQk0PQd9_l-VD5DMk-1" source="M-cZQk0PQd9_l-VD5DMk-5" target="M-cZQk0PQd9_l-VD5DMk-5" edge="1">
          <mxGeometry width="50" height="50" relative="1" as="geometry">
            <mxPoint x="200.51999999999998" y="9.549999999999955" as="sourcePoint" />
            <mxPoint x="230.44000000000005" y="37.83999999999992" as="targetPoint" />
            <Array as="points" />
          </mxGeometry>
        </mxCell>
        <mxCell id="M-cZQk0PQd9_l-VD5DMk-11" value="" style="endArrow=none;html=1;rounded=0;entryX=0.002;entryY=0.657;entryDx=0;entryDy=0;entryPerimeter=0;exitX=0.15;exitY=0.983;exitDx=0;exitDy=0;exitPerimeter=0;" parent="M-cZQk0PQd9_l-VD5DMk-1" source="M-cZQk0PQd9_l-VD5DMk-5" target="M-cZQk0PQd9_l-VD5DMk-5" edge="1">
          <mxGeometry width="50" height="50" relative="1" as="geometry">
            <mxPoint x="9.999999999999886" y="40" as="sourcePoint" />
            <mxPoint x="39.999999999999886" y="10" as="targetPoint" />
          </mxGeometry>
        </mxCell>
        <mxCell id="sjvn7pdewHHYzrczPWKb-10" style="edgeStyle=orthogonalEdgeStyle;rounded=0;orthogonalLoop=1;jettySize=auto;html=1;entryX=0;entryY=0.5;entryDx=0;entryDy=0;endArrow=none;endFill=0;" edge="1" parent="1" source="M-cZQk0PQd9_l-VD5DMk-14" target="sjvn7pdewHHYzrczPWKb-5">
          <mxGeometry relative="1" as="geometry" />
        </mxCell>
        <mxCell id="sjvn7pdewHHYzrczPWKb-18" style="edgeStyle=orthogonalEdgeStyle;rounded=0;orthogonalLoop=1;jettySize=auto;html=1;entryX=0.5;entryY=0;entryDx=0;entryDy=0;endArrow=none;endFill=0;" edge="1" parent="1" source="M-cZQk0PQd9_l-VD5DMk-14" target="sjvn7pdewHHYzrczPWKb-14">
          <mxGeometry relative="1" as="geometry">
            <Array as="points">
              <mxPoint x="320" y="210" />
              <mxPoint x="320" y="210" />
            </Array>
          </mxGeometry>
        </mxCell>
        <mxCell id="M-cZQk0PQd9_l-VD5DMk-14" value="Kitrepas" style="swimlane;fontStyle=0;childLayout=stackLayout;horizontal=1;startSize=30;horizontalStack=0;resizeParent=1;resizeParentMax=0;resizeLast=0;collapsible=1;marginBottom=0;" parent="1" vertex="1">
          <mxGeometry x="270" y="60" width="220" height="130" as="geometry" />
        </mxCell>
        <mxCell id="M-cZQk0PQd9_l-VD5DMk-15" value="identifiantRepas" style="text;strokeColor=none;fillColor=none;align=left;verticalAlign=middle;spacingLeft=4;spacingRight=4;overflow=hidden;points=[[0,0.5],[1,0.5]];portConstraint=eastwest;rotatable=0;fontStyle=4" parent="M-cZQk0PQd9_l-VD5DMk-14" vertex="1">
          <mxGeometry y="30" width="220" height="50" as="geometry" />
        </mxCell>
        <mxCell id="M-cZQk0PQd9_l-VD5DMk-16" value="decriptionRepas" style="text;strokeColor=none;fillColor=none;align=left;verticalAlign=middle;spacingLeft=4;spacingRight=4;overflow=hidden;points=[[0,0.5],[1,0.5]];portConstraint=eastwest;rotatable=0;" parent="M-cZQk0PQd9_l-VD5DMk-14" vertex="1">
          <mxGeometry y="80" width="220" height="50" as="geometry" />
        </mxCell>
        <mxCell id="sjvn7pdewHHYzrczPWKb-29" style="edgeStyle=orthogonalEdgeStyle;rounded=0;orthogonalLoop=1;jettySize=auto;html=1;entryX=1;entryY=0.5;entryDx=0;entryDy=0;endArrow=none;endFill=0;" edge="1" parent="1" target="sjvn7pdewHHYzrczPWKb-24">
          <mxGeometry relative="1" as="geometry">
            <mxPoint x="210" y="435" as="sourcePoint" />
            <Array as="points">
              <mxPoint x="200" y="435" />
              <mxPoint x="200" y="435" />
            </Array>
          </mxGeometry>
        </mxCell>
        <mxCell id="M-cZQk0PQd9_l-VD5DMk-21" value="Planrepas" style="swimlane;fontStyle=0;childLayout=stackLayout;horizontal=1;startSize=30;horizontalStack=0;resizeParent=1;resizeParentMax=0;resizeLast=0;collapsible=1;marginBottom=0;" parent="1" vertex="1">
          <mxGeometry x="210" y="370" width="220" height="130" as="geometry" />
        </mxCell>
        <mxCell id="M-cZQk0PQd9_l-VD5DMk-23" value="prixrepas" style="text;strokeColor=none;fillColor=none;align=left;verticalAlign=middle;spacingLeft=4;spacingRight=4;overflow=hidden;points=[[0,0.5],[1,0.5]];portConstraint=eastwest;rotatable=0;" parent="M-cZQk0PQd9_l-VD5DMk-21" vertex="1">
          <mxGeometry y="30" width="220" height="50" as="geometry" />
        </mxCell>
        <mxCell id="M-cZQk0PQd9_l-VD5DMk-22" value="prixrepas" style="text;strokeColor=none;fillColor=none;align=left;verticalAlign=middle;spacingLeft=4;spacingRight=4;overflow=hidden;points=[[0,0.5],[1,0.5]];portConstraint=eastwest;rotatable=0;" parent="M-cZQk0PQd9_l-VD5DMk-21" vertex="1">
          <mxGeometry y="80" width="220" height="50" as="geometry" />
        </mxCell>
        <mxCell id="M-cZQk0PQd9_l-VD5DMk-26" style="edgeStyle=orthogonalEdgeStyle;rounded=0;orthogonalLoop=1;jettySize=auto;html=1;exitX=0;exitY=0.5;exitDx=0;exitDy=0;endArrow=none;endFill=0;" parent="1" edge="1">
          <mxGeometry relative="1" as="geometry">
            <mxPoint x="540" y="125.38999999999999" as="sourcePoint" />
            <mxPoint x="490" y="125" as="targetPoint" />
            <Array as="points">
              <mxPoint x="515" y="125" />
              <mxPoint x="490" y="125" />
            </Array>
          </mxGeometry>
        </mxCell>
        <mxCell id="M-cZQk0PQd9_l-VD5DMk-28" style="edgeStyle=orthogonalEdgeStyle;rounded=0;orthogonalLoop=1;jettySize=auto;html=1;exitX=1;exitY=0.5;exitDx=0;exitDy=0;entryX=-0.005;entryY=0.716;entryDx=0;entryDy=0;entryPerimeter=0;endArrow=none;endFill=0;" parent="1" source="M-cZQk0PQd9_l-VD5DMk-29" target="M-cZQk0PQd9_l-VD5DMk-13" edge="1">
          <mxGeometry relative="1" as="geometry">
            <mxPoint x="640" y="125.38999999999999" as="sourcePoint" />
          </mxGeometry>
        </mxCell>
        <mxCell id="M-cZQk0PQd9_l-VD5DMk-29" value="avoir" style="ellipse;whiteSpace=wrap;html=1;align=center;strokeColor=default;fillColor=none;" parent="1" vertex="1">
          <mxGeometry x="540" y="105.39" width="100" height="40" as="geometry" />
        </mxCell>
        <mxCell id="M-cZQk0PQd9_l-VD5DMk-31" value="Ingredient" style="swimlane;fontStyle=0;childLayout=stackLayout;horizontal=1;startSize=30;horizontalStack=0;resizeParent=1;resizeParentMax=0;resizeLast=0;collapsible=1;marginBottom=0;" parent="1" vertex="1">
          <mxGeometry x="-150" y="35" width="220" height="180" as="geometry" />
        </mxCell>
        <mxCell id="M-cZQk0PQd9_l-VD5DMk-32" value="nouniqueIngredient" style="text;strokeColor=none;fillColor=none;align=left;verticalAlign=middle;spacingLeft=4;spacingRight=4;overflow=hidden;points=[[0,0.5],[1,0.5]];portConstraint=eastwest;rotatable=0;fontStyle=4" parent="M-cZQk0PQd9_l-VD5DMk-31" vertex="1">
          <mxGeometry y="30" width="220" height="50" as="geometry" />
        </mxCell>
        <mxCell id="M-cZQk0PQd9_l-VD5DMk-33" value="nomingredient" style="text;strokeColor=none;fillColor=none;align=left;verticalAlign=middle;spacingLeft=4;spacingRight=4;overflow=hidden;points=[[0,0.5],[1,0.5]];portConstraint=eastwest;rotatable=0;" parent="M-cZQk0PQd9_l-VD5DMk-31" vertex="1">
          <mxGeometry y="80" width="220" height="50" as="geometry" />
        </mxCell>
        <mxCell id="M-cZQk0PQd9_l-VD5DMk-34" value="paysOrigine" style="text;strokeColor=none;fillColor=none;align=left;verticalAlign=middle;spacingLeft=4;spacingRight=4;overflow=hidden;points=[[0,0.5],[1,0.5]];portConstraint=eastwest;rotatable=0;" parent="M-cZQk0PQd9_l-VD5DMk-31" vertex="1">
          <mxGeometry y="130" width="220" height="50" as="geometry" />
        </mxCell>
        <mxCell id="M-cZQk0PQd9_l-VD5DMk-35" style="edgeStyle=orthogonalEdgeStyle;rounded=0;orthogonalLoop=1;jettySize=auto;html=1;exitX=0;exitY=0.5;exitDx=0;exitDy=0;endArrow=none;endFill=0;entryX=0.998;entryY=0.19;entryDx=0;entryDy=0;entryPerimeter=0;" parent="1" target="M-cZQk0PQd9_l-VD5DMk-33" edge="1">
          <mxGeometry relative="1" as="geometry">
            <mxPoint x="121.1" y="124.99999999999999" as="sourcePoint" />
            <mxPoint x="120" y="100" as="targetPoint" />
            <Array as="points">
              <mxPoint x="96" y="125" />
            </Array>
          </mxGeometry>
        </mxCell>
        <mxCell id="M-cZQk0PQd9_l-VD5DMk-36" style="edgeStyle=orthogonalEdgeStyle;rounded=0;orthogonalLoop=1;jettySize=auto;html=1;exitX=1;exitY=0.5;exitDx=0;exitDy=0;entryX=-0.005;entryY=0.716;entryDx=0;entryDy=0;entryPerimeter=0;endArrow=none;endFill=0;" parent="1" source="M-cZQk0PQd9_l-VD5DMk-37" edge="1">
          <mxGeometry relative="1" as="geometry">
            <mxPoint x="221.1" y="124.99999999999999" as="sourcePoint" />
            <mxPoint x="270.0000000000001" y="125.80000000000005" as="targetPoint" />
          </mxGeometry>
        </mxCell>
        <mxCell id="M-cZQk0PQd9_l-VD5DMk-37" value="avoir" style="ellipse;whiteSpace=wrap;html=1;align=center;strokeColor=default;fillColor=none;" parent="1" vertex="1">
          <mxGeometry x="121.1" y="105" width="100" height="40" as="geometry" />
        </mxCell>
        <mxCell id="M-cZQk0PQd9_l-VD5DMk-38" value="0:n" style="text;html=1;align=center;verticalAlign=middle;resizable=0;points=[];autosize=1;strokeColor=none;fillColor=none;" parent="1" vertex="1">
          <mxGeometry x="70" y="95" width="40" height="30" as="geometry" />
        </mxCell>
        <mxCell id="M-cZQk0PQd9_l-VD5DMk-39" value="1:n" style="text;html=1;align=center;verticalAlign=middle;resizable=0;points=[];autosize=1;strokeColor=none;fillColor=none;" parent="1" vertex="1">
          <mxGeometry x="221.1" y="95" width="40" height="30" as="geometry" />
        </mxCell>
        <mxCell id="M-cZQk0PQd9_l-VD5DMk-40" value="1:n" style="text;html=1;align=center;verticalAlign=middle;resizable=0;points=[];autosize=1;strokeColor=none;fillColor=none;" parent="1" vertex="1">
          <mxGeometry x="150" y="75" width="40" height="30" as="geometry" />
        </mxCell>
        <mxCell id="M-cZQk0PQd9_l-VD5DMk-41" value="1:n" style="text;html=1;align=center;verticalAlign=middle;resizable=0;points=[];autosize=1;strokeColor=none;fillColor=none;" parent="1" vertex="1">
          <mxGeometry x="570" y="75" width="40" height="30" as="geometry" />
        </mxCell>
        <mxCell id="M-cZQk0PQd9_l-VD5DMk-42" value="1:n" style="text;html=1;align=center;verticalAlign=middle;resizable=0;points=[];autosize=1;strokeColor=none;fillColor=none;" parent="1" vertex="1">
          <mxGeometry x="500" y="95" width="40" height="30" as="geometry" />
        </mxCell>
        <mxCell id="M-cZQk0PQd9_l-VD5DMk-43" value="1:n" style="text;html=1;align=center;verticalAlign=middle;resizable=0;points=[];autosize=1;strokeColor=none;fillColor=none;" parent="1" vertex="1">
          <mxGeometry x="640" y="95" width="40" height="30" as="geometry" />
        </mxCell>
        <mxCell id="M-cZQk0PQd9_l-VD5DMk-44" style="edgeStyle=orthogonalEdgeStyle;rounded=0;orthogonalLoop=1;jettySize=auto;html=1;exitX=0.5;exitY=0;exitDx=0;exitDy=0;endArrow=none;endFill=0;" parent="1" source="M-cZQk0PQd9_l-VD5DMk-45" edge="1">
          <mxGeometry relative="1" as="geometry">
            <mxPoint x="960" y="100.38999999999999" as="sourcePoint" />
            <mxPoint x="910.0000000000002" y="100" as="targetPoint" />
            <Array as="points">
              <mxPoint x="1030" y="80" />
              <mxPoint x="910" y="80" />
            </Array>
          </mxGeometry>
        </mxCell>
        <mxCell id="M-cZQk0PQd9_l-VD5DMk-45" value="composée" style="ellipse;whiteSpace=wrap;html=1;align=center;strokeColor=default;fillColor=none;" parent="1" vertex="1">
          <mxGeometry x="979.7" y="103.92" width="100" height="40" as="geometry" />
        </mxCell>
        <mxCell id="M-cZQk0PQd9_l-VD5DMk-46" value="0:n" style="text;html=1;align=center;verticalAlign=middle;resizable=0;points=[];autosize=1;strokeColor=none;fillColor=none;" parent="1" vertex="1">
          <mxGeometry x="920" y="45" width="40" height="30" as="geometry" />
        </mxCell>
        <mxCell id="M-cZQk0PQd9_l-VD5DMk-47" value="1:n" style="text;html=1;align=center;verticalAlign=middle;resizable=0;points=[];autosize=1;strokeColor=none;fillColor=none;" parent="1" vertex="1">
          <mxGeometry x="920" y="160" width="40" height="30" as="geometry" />
        </mxCell>
        <mxCell id="M-cZQk0PQd9_l-VD5DMk-49" style="edgeStyle=orthogonalEdgeStyle;rounded=0;orthogonalLoop=1;jettySize=auto;html=1;exitX=0.5;exitY=1;exitDx=0;exitDy=0;endArrow=none;endFill=0;" parent="1" source="M-cZQk0PQd9_l-VD5DMk-45" edge="1">
          <mxGeometry relative="1" as="geometry">
            <mxPoint x="989.7000000000003" y="153.92000000000002" as="sourcePoint" />
            <mxPoint x="910" y="156.07999999999998" as="targetPoint" />
            <Array as="points">
              <mxPoint x="1029.7" y="155.92" />
            </Array>
          </mxGeometry>
        </mxCell>
        <mxCell id="zZUwTIv76cybzQ7KNxOM-3" style="edgeStyle=orthogonalEdgeStyle;rounded=0;orthogonalLoop=1;jettySize=auto;html=1;entryX=0.503;entryY=1.013;entryDx=0;entryDy=0;entryPerimeter=0;endArrow=none;endFill=0;" edge="1" parent="1" source="zZUwTIv76cybzQ7KNxOM-2" target="M-cZQk0PQd9_l-VD5DMk-22">
          <mxGeometry relative="1" as="geometry">
            <Array as="points">
              <mxPoint x="680" y="400" />
            </Array>
          </mxGeometry>
        </mxCell>
        <mxCell id="sjvn7pdewHHYzrczPWKb-9" style="edgeStyle=orthogonalEdgeStyle;rounded=0;orthogonalLoop=1;jettySize=auto;html=1;exitX=0.5;exitY=0;exitDx=0;exitDy=0;entryX=0;entryY=1;entryDx=0;entryDy=0;entryPerimeter=0;endArrow=none;endFill=0;" edge="1" parent="1" source="sjvn7pdewHHYzrczPWKb-1" target="sjvn7pdewHHYzrczPWKb-8">
          <mxGeometry relative="1" as="geometry">
            <Array as="points">
              <mxPoint x="620" y="265" />
            </Array>
          </mxGeometry>
        </mxCell>
        <mxCell id="zZUwTIv76cybzQ7KNxOM-4" style="edgeStyle=orthogonalEdgeStyle;rounded=0;orthogonalLoop=1;jettySize=auto;html=1;exitX=0;exitY=0.25;exitDx=0;exitDy=0;exitPerimeter=0;endArrow=none;endFill=0;" edge="1" parent="1" source="zZUwTIv76cybzQ7KNxOM-2">
          <mxGeometry relative="1" as="geometry">
            <mxPoint x="520" y="510" as="targetPoint" />
          </mxGeometry>
        </mxCell>
        <mxCell id="sjvn7pdewHHYzrczPWKb-1" value="Image" style="swimlane;fontStyle=0;childLayout=stackLayout;horizontal=1;startSize=30;horizontalStack=0;resizeParent=1;resizeParentMax=0;resizeLast=0;collapsible=1;marginBottom=0;" vertex="1" parent="1">
          <mxGeometry x="510" y="310" width="220" height="130" as="geometry" />
        </mxCell>
        <mxCell id="sjvn7pdewHHYzrczPWKb-2" value="nomedia" style="text;strokeColor=none;fillColor=none;align=left;verticalAlign=middle;spacingLeft=4;spacingRight=4;overflow=hidden;points=[[0,0.5],[1,0.5]];portConstraint=eastwest;rotatable=0;fontStyle=4" vertex="1" parent="sjvn7pdewHHYzrczPWKb-1">
          <mxGeometry y="30" width="220" height="50" as="geometry" />
        </mxCell>
        <mxCell id="sjvn7pdewHHYzrczPWKb-3" value="donneesImage" style="text;strokeColor=none;fillColor=none;align=left;verticalAlign=middle;spacingLeft=4;spacingRight=4;overflow=hidden;points=[[0,0.5],[1,0.5]];portConstraint=eastwest;rotatable=0;" vertex="1" parent="sjvn7pdewHHYzrczPWKb-1">
          <mxGeometry y="80" width="220" height="50" as="geometry" />
        </mxCell>
        <mxCell id="zZUwTIv76cybzQ7KNxOM-5" style="edgeStyle=orthogonalEdgeStyle;rounded=0;orthogonalLoop=1;jettySize=auto;html=1;exitX=0;exitY=0.5;exitDx=0;exitDy=0;exitPerimeter=0;endArrow=none;endFill=0;entryX=0.5;entryY=0;entryDx=0;entryDy=0;" edge="1" parent="1" source="zZUwTIv76cybzQ7KNxOM-2" target="zZUwTIv76cybzQ7KNxOM-10">
          <mxGeometry relative="1" as="geometry">
            <mxPoint x="680" y="500" as="targetPoint" />
            <Array as="points">
              <mxPoint x="680" y="510" />
            </Array>
          </mxGeometry>
        </mxCell>
        <mxCell id="sjvn7pdewHHYzrczPWKb-5" value="avoir" style="ellipse;whiteSpace=wrap;html=1;align=center;strokeColor=default;fillColor=none;" vertex="1" parent="1">
          <mxGeometry x="450" y="245.39" width="100" height="40" as="geometry" />
        </mxCell>
        <mxCell id="zZUwTIv76cybzQ7KNxOM-6" style="edgeStyle=orthogonalEdgeStyle;rounded=0;orthogonalLoop=1;jettySize=auto;html=1;exitX=0;exitY=0.75;exitDx=0;exitDy=0;exitPerimeter=0;endArrow=none;endFill=0;" edge="1" parent="1" source="zZUwTIv76cybzQ7KNxOM-2">
          <mxGeometry relative="1" as="geometry">
            <mxPoint x="840" y="510" as="targetPoint" />
          </mxGeometry>
        </mxCell>
        <mxCell id="sjvn7pdewHHYzrczPWKb-6" value="1:n" style="text;html=1;align=center;verticalAlign=middle;resizable=0;points=[];autosize=1;strokeColor=none;fillColor=none;" vertex="1" parent="1">
          <mxGeometry x="480" y="215" width="40" height="30" as="geometry" />
        </mxCell>
        <mxCell id="zZUwTIv76cybzQ7KNxOM-2" value="" style="shape=or;whiteSpace=wrap;html=1;direction=north;" vertex="1" parent="1">
          <mxGeometry x="645" y="410" width="70" height="40" as="geometry" />
        </mxCell>
        <mxCell id="sjvn7pdewHHYzrczPWKb-7" value="1:n" style="text;html=1;align=center;verticalAlign=middle;resizable=0;points=[];autosize=1;strokeColor=none;fillColor=none;" vertex="1" parent="1">
          <mxGeometry x="410" y="235" width="40" height="30" as="geometry" />
        </mxCell>
        <mxCell id="zZUwTIv76cybzQ7KNxOM-7" value="Pescatarien" style="swimlane;fontStyle=0;childLayout=stackLayout;horizontal=1;startSize=30;horizontalStack=0;resizeParent=1;resizeParentMax=0;resizeLast=0;collapsible=1;marginBottom=0;" vertex="1" parent="1">
          <mxGeometry x="450" y="510" width="130" height="130" as="geometry" />
        </mxCell>
        <mxCell id="zZUwTIv76cybzQ7KNxOM-8" value="typepoisson" style="text;strokeColor=none;fillColor=none;align=left;verticalAlign=middle;spacingLeft=4;spacingRight=4;overflow=hidden;points=[[0,0.5],[1,0.5]];portConstraint=eastwest;rotatable=0;" vertex="1" parent="zZUwTIv76cybzQ7KNxOM-7">
          <mxGeometry y="30" width="130" height="50" as="geometry" />
        </mxCell>
        <mxCell id="zZUwTIv76cybzQ7KNxOM-9" value="prixrepas" style="text;strokeColor=none;fillColor=none;align=left;verticalAlign=middle;spacingLeft=4;spacingRight=4;overflow=hidden;points=[[0,0.5],[1,0.5]];portConstraint=eastwest;rotatable=0;" vertex="1" parent="zZUwTIv76cybzQ7KNxOM-7">
          <mxGeometry y="80" width="130" height="50" as="geometry" />
        </mxCell>
        <mxCell id="sjvn7pdewHHYzrczPWKb-8" value="1:n" style="text;html=1;align=center;verticalAlign=middle;resizable=0;points=[];autosize=1;strokeColor=none;fillColor=none;" vertex="1" parent="1">
          <mxGeometry x="550" y="235" width="40" height="30" as="geometry" />
        </mxCell>
        <mxCell id="zZUwTIv76cybzQ7KNxOM-10" value="Planrepas" style="swimlane;fontStyle=0;childLayout=stackLayout;horizontal=1;startSize=30;horizontalStack=0;resizeParent=1;resizeParentMax=0;resizeLast=0;collapsible=1;marginBottom=0;" vertex="1" parent="1">
          <mxGeometry x="610" y="510" width="130" height="130" as="geometry" />
        </mxCell>
        <mxCell id="zZUwTIv76cybzQ7KNxOM-11" value="prixrepas" style="text;strokeColor=none;fillColor=none;align=left;verticalAlign=middle;spacingLeft=4;spacingRight=4;overflow=hidden;points=[[0,0.5],[1,0.5]];portConstraint=eastwest;rotatable=0;" vertex="1" parent="zZUwTIv76cybzQ7KNxOM-10">
          <mxGeometry y="30" width="130" height="50" as="geometry" />
        </mxCell>
        <mxCell id="zZUwTIv76cybzQ7KNxOM-12" value="prixrepas" style="text;strokeColor=none;fillColor=none;align=left;verticalAlign=middle;spacingLeft=4;spacingRight=4;overflow=hidden;points=[[0,0.5],[1,0.5]];portConstraint=eastwest;rotatable=0;" vertex="1" parent="zZUwTIv76cybzQ7KNxOM-10">
          <mxGeometry y="80" width="130" height="50" as="geometry" />
        </mxCell>
        <mxCell id="sjvn7pdewHHYzrczPWKb-19" style="edgeStyle=orthogonalEdgeStyle;rounded=0;orthogonalLoop=1;jettySize=auto;html=1;entryX=0.5;entryY=0;entryDx=0;entryDy=0;endArrow=none;endFill=0;" edge="1" parent="1" source="sjvn7pdewHHYzrczPWKb-14" target="M-cZQk0PQd9_l-VD5DMk-21">
          <mxGeometry relative="1" as="geometry" />
        </mxCell>
        <mxCell id="zZUwTIv76cybzQ7KNxOM-13" value="Planrepas" style="swimlane;fontStyle=0;childLayout=stackLayout;horizontal=1;startSize=30;horizontalStack=0;resizeParent=1;resizeParentMax=0;resizeLast=0;collapsible=1;marginBottom=0;" vertex="1" parent="1">
          <mxGeometry x="770" y="510" width="130" height="130" as="geometry" />
        </mxCell>
        <mxCell id="zZUwTIv76cybzQ7KNxOM-14" value="prixrepas" style="text;strokeColor=none;fillColor=none;align=left;verticalAlign=middle;spacingLeft=4;spacingRight=4;overflow=hidden;points=[[0,0.5],[1,0.5]];portConstraint=eastwest;rotatable=0;" vertex="1" parent="zZUwTIv76cybzQ7KNxOM-13">
          <mxGeometry y="30" width="130" height="50" as="geometry" />
        </mxCell>
        <mxCell id="zZUwTIv76cybzQ7KNxOM-15" value="prixrepas" style="text;strokeColor=none;fillColor=none;align=left;verticalAlign=middle;spacingLeft=4;spacingRight=4;overflow=hidden;points=[[0,0.5],[1,0.5]];portConstraint=eastwest;rotatable=0;" vertex="1" parent="zZUwTIv76cybzQ7KNxOM-13">
          <mxGeometry y="80" width="130" height="50" as="geometry" />
        </mxCell>
        <mxCell id="sjvn7pdewHHYzrczPWKb-14" value="renfermer" style="ellipse;whiteSpace=wrap;html=1;align=center;strokeColor=default;fillColor=none;" vertex="1" parent="1">
          <mxGeometry x="270" y="275.78" width="100" height="40" as="geometry" />
        </mxCell>
        <mxCell id="sjvn7pdewHHYzrczPWKb-15" value="1:n" style="text;html=1;align=center;verticalAlign=middle;resizable=0;points=[];autosize=1;strokeColor=none;fillColor=none;" vertex="1" parent="1">
          <mxGeometry x="270" y="330" width="40" height="30" as="geometry" />
        </mxCell>
        <mxCell id="sjvn7pdewHHYzrczPWKb-16" value="1:n" style="text;html=1;align=center;verticalAlign=middle;resizable=0;points=[];autosize=1;strokeColor=none;fillColor=none;" vertex="1" parent="1">
          <mxGeometry x="280" y="200" width="40" height="30" as="geometry" />
        </mxCell>
        <mxCell id="sjvn7pdewHHYzrczPWKb-17" value="1:n" style="text;html=1;align=center;verticalAlign=middle;resizable=0;points=[];autosize=1;strokeColor=none;fillColor=none;" vertex="1" parent="1">
          <mxGeometry x="230" y="280.78" width="40" height="30" as="geometry" />
        </mxCell>
        <mxCell id="sjvn7pdewHHYzrczPWKb-20" value="Client" style="swimlane;fontStyle=0;childLayout=stackLayout;horizontal=1;startSize=30;horizontalStack=0;resizeParent=1;resizeParentMax=0;resizeLast=0;collapsible=1;marginBottom=0;" vertex="1" parent="1">
          <mxGeometry x="-201.1" y="335" width="220" height="200" as="geometry" />
        </mxCell>
        <mxCell id="sjvn7pdewHHYzrczPWKb-21" value="identifiantclient" style="text;strokeColor=none;fillColor=none;align=left;verticalAlign=middle;spacingLeft=4;spacingRight=4;overflow=hidden;points=[[0,0.5],[1,0.5]];portConstraint=eastwest;rotatable=0;fontStyle=4" vertex="1" parent="sjvn7pdewHHYzrczPWKb-20">
          <mxGeometry y="30" width="220" height="50" as="geometry" />
        </mxCell>
        <mxCell id="sjvn7pdewHHYzrczPWKb-22" value="nomemploye" style="text;strokeColor=none;fillColor=none;align=left;verticalAlign=middle;spacingLeft=4;spacingRight=4;overflow=hidden;points=[[0,0.5],[1,0.5]];portConstraint=eastwest;rotatable=0;" vertex="1" parent="sjvn7pdewHHYzrczPWKb-20">
          <mxGeometry y="80" width="220" height="50" as="geometry" />
        </mxCell>
        <mxCell id="sjvn7pdewHHYzrczPWKb-23" value="adresseemploye&#xa;    rue&#xa;    ville&#xa;    codepostal" style="text;strokeColor=none;fillColor=none;align=left;verticalAlign=middle;spacingLeft=4;spacingRight=4;overflow=hidden;points=[[0,0.5],[1,0.5]];portConstraint=eastwest;rotatable=0;" vertex="1" parent="sjvn7pdewHHYzrczPWKb-20">
          <mxGeometry y="130" width="220" height="70" as="geometry" />
        </mxCell>
        <mxCell id="sjvn7pdewHHYzrczPWKb-24" value="abonner à" style="ellipse;whiteSpace=wrap;html=1;align=center;strokeColor=default;fillColor=none;" vertex="1" parent="1">
          <mxGeometry x="70" y="415" width="100" height="40" as="geometry" />
        </mxCell>
        <mxCell id="sjvn7pdewHHYzrczPWKb-25" value="1:n" style="text;html=1;align=center;verticalAlign=middle;resizable=0;points=[];autosize=1;strokeColor=none;fillColor=none;" vertex="1" parent="1">
          <mxGeometry x="18.9" y="405" width="40" height="30" as="geometry" />
        </mxCell>
        <mxCell id="sjvn7pdewHHYzrczPWKb-26" value="0:n" style="text;html=1;align=center;verticalAlign=middle;resizable=0;points=[];autosize=1;strokeColor=none;fillColor=none;" vertex="1" parent="1">
          <mxGeometry x="170" y="405" width="40" height="30" as="geometry" />
        </mxCell>
        <mxCell id="sjvn7pdewHHYzrczPWKb-27" value="1:n" style="text;html=1;align=center;verticalAlign=middle;resizable=0;points=[];autosize=1;strokeColor=none;fillColor=none;" vertex="1" parent="1">
          <mxGeometry x="98.9" y="385" width="40" height="30" as="geometry" />
        </mxCell>
        <mxCell id="sjvn7pdewHHYzrczPWKb-28" style="edgeStyle=orthogonalEdgeStyle;rounded=0;orthogonalLoop=1;jettySize=auto;html=1;entryX=0;entryY=0.5;entryDx=0;entryDy=0;endArrow=none;endFill=0;" edge="1" parent="1" source="sjvn7pdewHHYzrczPWKb-22" target="sjvn7pdewHHYzrczPWKb-24">
          <mxGeometry relative="1" as="geometry">
            <Array as="points">
              <mxPoint x="30" y="435" />
              <mxPoint x="30" y="435" />
            </Array>
          </mxGeometry>
        </mxCell>
      </root>
    </mxGraphModel>
  </diagram>
</mxfile>
